<svg width="60" height="60" viewBox="0 0 60 60" fill="none" xmlns="http://www.w3.org/2000/svg">
<g clip-path="url(#clip0_2_4)">
<path d="M23.3 49.7L21.3 57.7C21.3 57.7 39.5 58.2 47.1 52C54.7 45.8 52.8 46.2 52.8 46.2L44.8 38.6L23.3 49.7Z" fill="#F2C57E"/>
<path d="M28.6 50.8C28.6 50.8 29.2 56.7 31.2 57.8C31.2 57.8 21.5 58.5 21.7 55.9L23.1 49.6L28.6 50.8Z" fill="#BD704B"/>
<path d="M21.8 36.1C21.8 36.1 23.6 38.6 24 42.3C24.4 46 20 49.2 28.1 50.7C35.3 52 51 45.2 45.9 40.1C42.7 36.9 40.5 34.3 41.9 28.1C43.4 21.9 34.8 18.1 34.8 18.1L21.8 36.1Z" fill="#F2C57E"/>
<path d="M40.9 34.1C40.9 34.1 43.6 41.2 52.4 46.5L53.1 44.9C53.1 44.9 45.7 42.6 41.7 33.8C37.7 25 40.7 34.1 40.9 34.1ZM25.1 9C25.1 9 20 11.2 22.3 27C23 35.6 19.4 34.9 18.7 34.1C17.9 33.4 21.1 29 19.3 27.5C17.5 26 15.3 27.4 13.1 23.1C10.3 17.5 13.6 19.8 16.2 15C18.1 11.5 19.5 9.5 21.1 9.7C22.4 9.8 23.6 7.9 25.1 9Z" fill="#BD704B"/>
<path d="M14.9 27.1C14.9 27.1 15.1 30.8 14.4 32.9C13.3 36 16.1 40.2 20.2 35.7C24.3 31.2 14.9 27.1 14.9 27.1Z" fill="#F2C57E"/>
<path d="M35.7 10C35.7 10 27.8 6 21.5 10.5C15.2 15 20.2 14.4 16.4 20.1C12.6 25.8 15.7 38.6 27.9 38.8C40.1 39 39.9 15.6 39.9 15.6C39.9 15.6 38.7 10.4 35.7 10Z" fill="#F2C57E"/>
<path d="M33 36C33 36 29.2 39.4 29.4 41.7C29.5 44 38.9 43.5 30.6 45.8C28.3 46.4 28.4 50.2 30.2 50.9C32 51.6 23.3 50.2 23.4 47.3C23.5 44.5 24.7 39.4 21.8 37.5C21.6 37.5 28.9 39.7 33 36Z" fill="#BD704B"/>
<path d="M23.2 47.1C23.2 47.1 30.7 50.7 38.4 46.5C44.1 43.4 45.9 40 45.3 39.3C45.3 39.3 46.7 39.4 48 41.4C49 42.9 47.4 47.5 39 51C31.1 54.2 24 52.2 22.6 50.8C21.3 49.4 23.2 47.1 23.2 47.1Z" fill="#AD4646"/>
<path d="M20.2 18.9C19.7 18.9 19.3 18.5 19.3 18V15.9C19.3 15.4 19.7 15 20.2 15C20.7 15 21.1 15.4 21.1 15.9V18C21.1 18.5 20.7 18.9 20.2 18.9Z" fill="#3F2418"/>
<path d="M22.5 16.5C22.5 16.5 15.9 21.2 13.4 22.2C10.9 23.2 11 25.9 14.4 28.7C17.8 31.5 27.9 24.1 22.5 16.5Z" fill="#F2C57E"/>
<path d="M12.9 27.1C12.9 27.1 15.4 29.8 13.9 32.8C12.9 34.8 13.9 38.6 17.6 37.5C17.6 37.5 13.3 37.7 15 32.9C15.6 31.1 15.6 28.4 12.9 27.1ZM34.1 9.4C34.1 9.4 41.3 12.3 38.7 28.1C37.8 36.7 42 36 43 35.2C43.9 34.5 44 31.7 46.1 30.3C48.1 28.8 53.1 24.4 50.6 20C48.1 15.6 45.5 16.5 43.9 13.6C42.4 11 41.4 10.6 39.6 10.6C38.1 10.6 36 8.4 34.1 9.4Z" fill="#BD704B"/>
<path d="M32.1 19.8C31.6 19.8 31.1 19.4 31.1 18.8V16.5C31.1 16 31.5 15.5 32.1 15.5C32.6 15.5 33.1 15.9 33.1 16.5V18.9C33.1 19.4 32.6 19.8 32.1 19.8Z" fill="#3F2418"/>
<path d="M30.5 14.9C30.5 14.9 28.3 13.7 30.1 12.7C32.4 11.4 35 13.5 35.4 14.7C35.4 14.7 32.7 12.2 30.5 13.4C29.3 14 30.5 14.9 30.5 14.9ZM21 13C20.9214 12.8213 20.7787 12.6786 20.6 12.6C20.3 12.4 19.8 12.4 19.4 12.5C19 12.6 18.7 12.9 18.4 13.1C18.6 12.6 18.9 12.2 19.4 12C19.6 11.9 19.9 11.9 20.1 11.9C20.6 11.9 21.1 12.1 21.5 12.4C21.9 12.7 22.1 13.2 22.1 13.7C22 14.1 21.8 14.5 21.4 14.6C21.3 14.6 21.2 14.7 21.2 14.6C21.2 14.5 21.3 14.4 21.3 14.3C21.4 14.1 21.4 13.9 21.3 13.6C21.3 13.5 21.2 13.2 21 13ZM17.5 32C17.5 32 19.7 39.4 27.9 37.6C35.4 35.9 36.5 29.5 36.5 29.5C37 31 34.9 39.7 24.7 38.9C17.3 38.3 17.5 32 17.5 32Z" fill="#BD704B"/>
<path d="M19.1 35.6C19.1 35.6 18.8 38.5 14.6 37C14.6 37 16.7 39.4 19.3 36.8C20.5 35.5 19.1 35.6 19.1 35.6ZM12.5 24.9C12 24.6 12 23.8 12.3 23.3C12.7 22.8 13.5 22.4 14.1 22.1C17.2 20.7 20.5 18.8 22.8 16.1C22.8 16.1 15.8 21 12.1 22.3C10.3 23 12.5 24.9 12.5 24.9Z" fill="#BD704B"/>
<path d="M11.7 23.4C10.6 24.5 12.4 27.8 14.6 28.8C17.1 29.9 20.7 25.6 20 24.4C19.2 22.8 14 21.1 11.7 23.4Z" fill="#AD4646"/>
<mask id="mask0_2_4" style="mask-type:luminance" maskUnits="userSpaceOnUse" x="11" y="22" width="10" height="7">
<path d="M11.7 23.4C10.6 24.5 12.4 27.8 14.6 28.8C17.1 29.9 20.7 25.6 20 24.4C19.2 22.8 14 21.1 11.7 23.4V23.4Z" fill="white"/>
</mask>
<g mask="url(#mask0_2_4)">
<path d="M16.2 27.2C16 26.9 16 26.4 16.2 26.2C16.3 26.1 16.4 26 16.5 26C16.7 25.9 16.9 25.9 17 25.9C17.9 25.8 18.9 26.2 19.5 26.9C20 27.4 19.8 27.9 19.3 28.2C18.7 28.5 17.9 28.6 17.2 28.3C16.7475 28.0625 16.3934 27.673 16.2 27.2ZM13.9 27.2C14 26.9 14.1 26.5 13.9 26.2C13.8 26.1 13.7 26 13.6 26C13.5 25.9 13.3 25.9 13.2 25.9C12.5 25.8 11.8 26.2 11.2 26.9C10.8 27.4 11 27.9 11.4 28.2C11.9 28.5 12.5 28.6 13 28.3C13.2323 28.2102 13.4374 28.0616 13.5952 27.8688C13.7529 27.676 13.8579 27.4455 13.9 27.2Z" fill="#6A2524"/>
</g>
<path d="M30 60C13.5 60 0 46.5 0 30C0 13.5 13.5 0 30 0C46.5 0 60 13.5 60 30C60 46.5 46.6 60 30 60ZM30 4C15.7 4 4 15.7 4 30C4 44.3 15.7 56 30 56C44.3 56 56 44.3 56 30C56 15.7 44.4 4 30 4Z" fill="#AD4646"/>
<path d="M21.5 9.9C21.5 9.9 30.6 6.1 37.2 11.9C37.2 11.9 37 9.2 31.9 8.1C29.2 7.5 23.2 7.6 21.5 9.9Z" fill="#BD704B"/>
<path d="M20.7 33C21.0314 33 21.3 32.8209 21.3 32.6C21.3 32.3791 21.0314 32.2 20.7 32.2C20.3686 32.2 20.1 32.3791 20.1 32.6C20.1 32.8209 20.3686 33 20.7 33Z" fill="#BD704B"/>
<path d="M24.6 35C24.9314 35 25.2 34.8209 25.2 34.6C25.2 34.3791 24.9314 34.2 24.6 34.2C24.2686 34.2 24 34.3791 24 34.6C24 34.8209 24.2686 35 24.6 35Z" fill="#BD704B"/>
<path d="M28.1 34.9C28.4314 34.9 28.7 34.7209 28.7 34.5C28.7 34.2791 28.4314 34.1 28.1 34.1C27.7686 34.1 27.5 34.2791 27.5 34.5C27.5 34.7209 27.7686 34.9 28.1 34.9Z" fill="#BD704B"/>
<path d="M26.4 36.7C26.7314 36.7 27 36.5209 27 36.3C27 36.0791 26.7314 35.9 26.4 35.9C26.0686 35.9 25.8 36.0791 25.8 36.3C25.8 36.5209 26.0686 36.7 26.4 36.7Z" fill="#BD704B"/>
<path d="M22 35.6C22.3314 35.6 22.6 35.4209 22.6 35.2C22.6 34.9791 22.3314 34.8 22 34.8C21.6686 34.8 21.4 34.9791 21.4 35.2C21.4 35.4209 21.6686 35.6 22 35.6Z" fill="#BD704B"/>
</g>
<defs>
<clipPath id="clip0_2_4">
<rect width="60" height="60" fill="white"/>
</clipPath>
</defs>
</svg>
